<svg width="147" height="330" viewBox="0 0 147 330" fill="none" xmlns="http://www.w3.org/2000/svg">
<path d="M145 2C134.366 2 131.922 8.4489 127.346 17.2133C122.312 26.8531 113.198 38.5057 110.826 48.7267C108.644 58.1312 104.71 63.9522 104.143 73.72C103.616 82.8083 99.6032 91.4076 99.6032 100.887C99.6032 125.59 142.393 171.458 107.548 189.993C99.1209 194.476 85.0161 197.685 75.7698 199.653C65.2375 201.894 55.0877 205.918 45.127 210.157C29.9324 216.623 13.3492 234.775 13.3492 251.933C13.3492 268.77 29.2381 277.442 29.2381 295.4C29.2381 301.23 21.1071 310.534 17.8889 315.926C14.1671 322.162 10.3443 328 2 328" stroke="black" stroke-width="3" stroke-linecap="round"/>
</svg>
