<svg width="336" height="405" viewBox="0 0 336 405" fill="none" xmlns="http://www.w3.org/2000/svg">
<path d="M2 2.19696C15.7943 2.19696 29.5886 2.19696 43.383 2.19696C73.6685 2.19696 102.658 -0.965219 124.183 18.0515C141.525 33.3736 154.096 53.4924 157.42 73.5072C160.567 92.4535 170.842 114.609 158.731 132.838C146.986 150.518 112.831 154.101 93.8477 139.814C89.487 136.532 78.8335 124.286 84.9532 119.168C94.8562 110.887 113.958 105.701 127.272 101.693C141.013 97.5564 161.225 98.5189 173.149 104.23C185.642 110.213 202.576 117.726 210.132 127.835C218.573 139.13 225.008 149.233 229.138 162.011C233.131 174.364 232.883 186.83 232.883 199.498C232.883 211.593 225.61 223.693 218.558 234.308C212.074 244.069 206.926 256.767 192.53 261.507C167.22 269.841 135.926 254.162 128.49 235.505C123.185 222.197 129.047 220.16 143.938 214.014C169.725 203.371 193.751 202.598 222.772 202.598C236.724 202.598 246.365 220.382 246.365 229.939C246.365 247.45 248.051 265.667 248.051 283.492C248.051 294.243 238.904 310.81 228.576 318.583C221.971 323.555 206.947 334.09 197.492 334.508C175.255 335.493 179.688 317.563 196.556 312.946C208.304 309.731 220.812 310.409 233.258 310.409C247.132 310.409 253.463 311.946 263.218 319.288C269.318 323.878 273.428 328.837 278.386 334.226C281.352 337.451 283.712 339.848 286.063 343.387C289.852 349.091 293.001 354.89 296.362 360.792C305.812 377.386 318.256 389.605 334 403" stroke="black" stroke-width="3" stroke-linecap="round"/>
</svg>
